<?xml version="1.0" encoding="utf-8"?>
<!-- Generator: Adobe Illustrator 25.2.3, SVG Export Plug-In . SVG Version: 6.00 Build 0)  -->
<svg version="1.1" id="Camada_1" xmlns="http://www.w3.org/2000/svg" xmlns:xlink="http://www.w3.org/1999/xlink" x="0px" y="0px"
	 viewBox="0 0 1080 1080" style="enable-background:new 0 0 1080 1080;" xml:space="preserve">
<style type="text/css">
	.st0{display:none;}
	.st1{display:inline;}
	.st2{filter:url(#Adobe_OpacityMaskFilter);}
	.st3{fill:#FFFFFF;}
	.st4{mask:url(#SVGID_1_);fill:#6D6C80;}
	.st5{fill:#106A75;}
	.st6{fill:#6D6C80;}
	.st7{filter:url(#Adobe_OpacityMaskFilter_1_);}
	.st8{mask:url(#SVGID_2_);fill:#FFFFFF;}
</style>
<text transform="matrix(1 0 0 1 -519.332 490.2344)" style="font-family:'MyriadPro-Regular'; font-size:74.2097px;">#106a75</text>
<g class="st0">
	<g class="st1">
		<g>
			<defs>
				<filter id="Adobe_OpacityMaskFilter" filterUnits="userSpaceOnUse" x="157.49" y="91" width="50" height="50">
					<feColorMatrix  type="matrix" values="1 0 0 0 0  0 1 0 0 0  0 0 1 0 0  0 0 0 1 0"/>
				</filter>
			</defs>
			<mask maskUnits="userSpaceOnUse" x="157.49" y="91" width="50" height="50" id="SVGID_1_">
				<g class="st2">
					<path class="st3" d="M92.07,49.98v776.4h847.92V49.98H92.07z M557.27,733.45H208.2V238h349.06V733.45z M909.96,334.49
						c0,2.71-0.08,5.46-0.23,8.2l18.25,5.93c6.71,2.18,12.17,6.85,15.37,13.13c3.2,6.29,3.77,13.45,1.58,20.16l-8.72,26.86
						c-3.55,10.92-13.64,18.26-25.12,18.26c0,0,0,0,0,0c-2.77,0-5.52-0.44-8.16-1.3l-18.25-5.93c-2.95,4.54-6.2,8.99-9.65,13.25
						l11.29,15.54c4.15,5.71,5.82,12.69,4.72,19.65c-1.1,6.97-4.85,13.09-10.56,17.24l-22.85,16.6c-4.54,3.3-9.91,5.05-15.51,5.05
						c-8.44,0-16.43-4.07-21.38-10.89l-11.26-15.5c-5.08,1.95-10.32,3.65-15.6,5.06v19.18c0,14.57-11.85,26.41-26.42,26.41h-28.24
						c-14.57,0-26.42-11.85-26.42-26.41v-19.18c-5.26-1.41-10.51-3.11-15.6-5.06l-11.26,15.5c-4.96,6.82-12.95,10.89-21.38,10.89
						c-5.61,0-10.97-1.74-15.52-5.05l-22.85-16.6c-5.71-4.15-9.46-10.27-10.56-17.24c-1.1-6.97,0.57-13.95,4.72-19.66l11.29-15.53
						c-3.45-4.26-6.7-8.72-9.67-13.28l-18.23,5.96c-2.65,0.86-5.4,1.3-8.17,1.3c-11.48,0-21.57-7.34-25.12-18.26l-8.73-26.86
						c-4.49-13.86,3.12-28.78,16.96-33.28l18.25-5.93c-0.15-2.77-0.23-5.53-0.23-8.2c0-2.67,0.08-5.43,0.23-8.2l-18.25-5.93
						c-13.85-4.5-21.46-19.43-16.96-33.28l8.73-26.87c3.55-10.92,13.64-18.26,25.12-18.26c2.77,0,5.52,0.44,8.17,1.3l18.24,5.92
						c2.97-4.56,6.22-9.01,9.65-13.25l-11.29-15.53c-4.15-5.71-5.82-12.69-4.72-19.66c1.1-6.97,4.86-13.09,10.56-17.24l22.84-16.6
						c4.55-3.3,9.91-5.05,15.52-5.05c8.43,0,16.43,4.07,21.38,10.89l11.27,15.5c5.09-1.95,10.33-3.65,15.6-5.06v-19.18
						c0-14.57,11.85-26.41,26.42-26.41h28.24c14.57,0,26.42,11.85,26.42,26.41v19.18c5.26,1.4,10.51,3.1,15.6,5.06l11.26-15.5
						c4.95-6.82,12.95-10.89,21.38-10.89c5.61,0,10.97,1.74,15.52,5.05l22.84,16.6c5.71,4.15,9.46,10.27,10.57,17.24
						c1.1,6.97-0.57,13.95-4.72,19.66l-11.29,15.54c3.46,4.27,6.71,8.73,9.67,13.28l18.23-5.96c2.65-0.86,5.4-1.3,8.17-1.3
						c11.48,0,21.57,7.34,25.12,18.26l8.73,26.86c2.18,6.71,1.61,13.87-1.59,20.16c-3.2,6.29-8.66,10.95-15.37,13.13l-18.25,5.93
						C909.88,329.03,909.96,331.79,909.96,334.49z"/>
				</g>
			</mask>
			<path class="st4" d="M697.03,278.2C521.55,102.72,300.43,39.34,203.13,136.64s-33.92,318.42,141.56,493.9
				C520.17,806.02,741.3,869.4,838.59,772.1C935.89,674.81,872.51,453.68,697.03,278.2z M828.36,761.87
				c-85.42,85.42-293.24,16.1-464.18-154.84C193.24,436.09,123.92,228.27,209.34,142.85c85.42-85.42,293.24-16.1,464.18,154.84
				C844.46,468.62,913.78,676.44,828.36,761.87z"/>
			<path class="st5" d="M208.2,668.66c0,26.86,21.77,42.14,48.63,42.14h181.71v-4.48c0-10.95,8.88-19.83,19.83-19.83h101.09
				c10.95,0,19.83,8.88,19.83,19.83v4.48h181.71c26.86,0,48.63-15.29,48.63-42.14H208.2z"/>
			<path class="st5" d="M766.99,525h-13.66v58c0,12.35-10.01,22.37-22.37,22.37H286.87c-12.35,0-22.36-10.01-22.36-22.36V325.74
				c0-12.35,10.01-22.37,22.37-22.37h280.75c-1.31-4.68-1.32-9.79,0.29-14.75l5.18-15.96H284.45c-27.98,0-50.65,22.68-50.65,50.65
				v262.11c0,27.98,22.68,50.65,50.65,50.65h448.94c27.98,0,50.65-22.68,50.65-50.65v-67C779.51,522.5,773.54,525,766.99,525z"/>
			<path class="st6" d="M914.14,360l-17.74-5.76c-5.2-1.69-8.67-6.66-8.34-12.12c0.15-2.52,0.23-5.07,0.23-7.63
				c0-2.56-0.08-5.1-0.23-7.63c-0.32-5.46,3.14-10.43,8.34-12.12l17.74-5.76c6.36-2.07,9.84-8.9,7.78-15.26l-8.23-25.34
				c-2.07-6.36-8.9-9.84-15.26-7.78l-17.73,5.76c-5.18,1.68-10.89-0.27-13.84-4.85c-2.78-4.3-5.79-8.44-9.03-12.39
				c-3.46-4.23-3.57-10.27-0.36-14.69l10.97-15.1c3.93-5.41,2.73-12.98-2.68-16.92l-21.55-15.66c-5.41-3.93-12.99-2.73-16.92,2.68
				l-10.95,15.07c-3.21,4.42-8.99,6.18-14.08,4.2c-4.74-1.84-9.6-3.42-14.58-4.73c-5.28-1.38-8.91-6.22-8.91-11.67v-18.64
				c0-6.69-5.42-12.11-12.11-12.11h-26.64c-6.69,0-12.11,5.42-12.11,12.11v18.64c0,5.46-3.64,10.29-8.92,11.67
				c-4.98,1.31-9.85,2.89-14.58,4.73c-5.09,1.98-10.87,0.22-14.08-4.2l-10.95-15.07c-3.93-5.41-11.51-6.61-16.92-2.68l-21.55,15.66
				c-5.41,3.93-6.61,11.5-2.68,16.92l10.97,15.1c3.21,4.42,3.1,10.47-0.36,14.69c-3.23,3.95-6.25,8.09-9.03,12.39
				c-2.95,4.58-8.66,6.54-13.84,4.85l-17.73-5.76c-6.36-2.07-13.19,1.41-15.26,7.78l-8.23,25.34c-2.07,6.36,1.41,13.19,7.78,15.26
				l17.74,5.76c5.2,1.69,8.67,6.66,8.34,12.12c-0.15,2.52-0.23,5.07-0.23,7.63c0,2.56,0.08,5.11,0.23,7.63
				c0.32,5.46-3.14,10.43-8.34,12.12L592.52,360c-6.36,2.07-9.84,8.9-7.78,15.26l8.23,25.34c2.07,6.36,8.9,9.84,15.26,7.78
				l17.73-5.76c5.18-1.68,10.89,0.27,13.84,4.85c2.78,4.3,5.79,8.44,9.03,12.39c3.46,4.23,3.57,10.27,0.36,14.69l-10.97,15.1
				c-3.93,5.41-2.73,12.98,2.68,16.92l21.55,15.66c5.41,3.93,12.99,2.73,16.92-2.68l10.95-15.07c3.21-4.42,8.99-6.18,14.08-4.2
				c4.74,1.84,9.6,3.42,14.58,4.73c5.28,1.38,8.92,6.22,8.92,11.67v18.64c0,6.69,5.42,12.11,12.11,12.11h26.64
				c6.69,0,12.11-5.42,12.11-12.11v-18.64c0-5.46,3.64-10.29,8.91-11.67c4.98-1.31,9.84-2.89,14.58-4.73
				c5.09-1.98,10.87-0.22,14.08,4.2l10.95,15.07c3.93,5.41,11.51,6.61,16.92,2.68l21.55-15.66c5.41-3.93,6.61-11.5,2.68-16.92
				l-10.97-15.1c-3.21-4.42-3.1-10.47,0.36-14.69c3.23-3.95,6.25-8.09,9.03-12.39c2.95-4.58,8.66-6.54,13.84-4.85l17.73,5.76
				c6.36,2.07,13.19-1.41,15.26-7.78l8.23-25.34C923.98,368.9,920.5,362.07,914.14,360z M753.33,425.37
				c-50.19,0-90.87-40.69-90.87-90.87s40.69-90.87,90.87-90.87c50.19,0,90.88,40.69,90.88,90.87S803.51,425.37,753.33,425.37z"/>
			
				<ellipse transform="matrix(0.7071 -0.7071 0.7071 0.7071 -15.8782 630.6529)" class="st5" cx="753.33" cy="334.49" rx="58.24" ry="58.24"/>
		</g>
	</g>
	<g class="st1">
		<path class="st5" d="M206.91,987.31c-1.81,0-3.36-0.62-4.65-1.86c-1.3-1.24-1.95-2.82-1.95-4.74V861.75c0-1.8,0.65-3.36,1.95-4.65
			c1.3-1.3,2.85-1.95,4.65-1.95c1.8,0,3.36,0.65,4.65,1.95c1.3,1.3,1.95,2.85,1.95,4.65v113.03h66.16c1.8,0,3.36,0.59,4.65,1.78
			c1.3,1.18,1.95,2.68,1.95,4.48c0,1.81-0.65,3.3-1.95,4.48c-1.3,1.18-2.85,1.78-4.65,1.78H206.91z"/>
		<path class="st5" d="M314.87,877.15c-2.48,0-4.63-0.9-6.43-2.71c-1.81-1.8-2.71-4-2.71-6.6c0-2.82,0.93-5.05,2.79-6.68
			c1.86-1.63,4.03-2.45,6.51-2.45c2.37,0,4.48,0.82,6.34,2.45c1.86,1.64,2.79,3.87,2.79,6.68c0,2.6-0.9,4.8-2.71,6.6
			C319.66,876.25,317.46,877.15,314.87,877.15z M315.04,987.31c-2.03,0-3.64-0.59-4.82-1.78c-1.18-1.18-1.78-2.79-1.78-4.82v-79.36
			c0-2.03,0.59-3.64,1.78-4.82c1.18-1.18,2.79-1.78,4.82-1.78c1.92,0,3.47,0.59,4.65,1.78c1.18,1.18,1.78,2.79,1.78,4.82v79.36
			c0,2.03-0.59,3.64-1.78,4.82C318.51,986.72,316.95,987.31,315.04,987.31z"/>
		<path class="st5" d="M361.23,987.31c-2.03,0-3.64-0.59-4.82-1.78c-1.18-1.18-1.78-2.73-1.78-4.65v-79.53
			c0-2.03,0.59-3.64,1.78-4.82c1.18-1.18,2.79-1.78,4.82-1.78c1.92,0,3.47,0.59,4.65,1.78c1.18,1.18,1.78,2.79,1.78,4.82v79.53
			c0,1.92-0.59,3.47-1.78,4.65C364.7,986.72,363.15,987.31,361.23,987.31z M433.99,987.31c-1.92,0-3.5-0.62-4.74-1.86
			c-1.24-1.24-1.86-2.76-1.86-4.57v-43.99c0-6.99-1.33-12.75-3.98-17.26c-2.65-4.51-6.26-7.9-10.83-10.15
			c-4.57-2.26-9.73-3.38-15.48-3.38c-5.53,0-10.52,1.07-14.98,3.22c-4.46,2.14-7.98,5.08-10.58,8.8c-2.6,3.72-3.89,7.95-3.89,12.69
			h-9.31c0.22-7.11,2.14-13.45,5.75-19.04c3.61-5.58,8.4-9.98,14.38-13.2c5.98-3.21,12.63-4.82,19.97-4.82
			c8.01,0,15.17,1.67,21.49,4.99c6.32,3.33,11.31,8.21,14.98,14.64c3.66,6.43,5.5,14.27,5.5,23.52v43.99c0,1.81-0.62,3.33-1.86,4.57
			C437.32,986.69,435.79,987.31,433.99,987.31z"/>
		<path class="st5" d="M475.61,987.31c-1.92,0-3.47-0.59-4.65-1.78c-1.18-1.18-1.78-2.73-1.78-4.65V861.58
			c0-1.92,0.59-3.47,1.78-4.65c1.18-1.18,2.73-1.78,4.65-1.78c1.92,0,3.47,0.59,4.65,1.78c1.18,1.18,1.78,2.74,1.78,4.65v119.29
			c0,1.92-0.59,3.47-1.78,4.65C479.08,986.72,477.53,987.31,475.61,987.31z M479.85,956.34l-7.95-8.63l57.87-52.29
			c1.35-1.24,2.76-1.83,4.23-1.78c1.46,0.06,2.82,0.76,4.06,2.12c1.24,1.35,1.83,2.79,1.78,4.32c-0.06,1.52-0.76,2.85-2.11,3.98
			L479.85,956.34z M538.22,986.46c-1.47,1.24-2.99,1.78-4.57,1.61c-1.58-0.17-2.93-0.99-4.06-2.45l-37.74-46.36l9.14-8.12
			L539.07,978c1.13,1.35,1.63,2.79,1.52,4.32C540.48,983.84,539.69,985.22,538.22,986.46z"/>
		<path class="st6" d="M627.06,989c-9.14,0-17.68-1.75-25.64-5.24c-7.95-3.5-14.95-8.38-20.98-14.64
			c-6.04-6.26-10.74-13.48-14.13-21.66c-3.39-8.18-5.08-16.95-5.08-26.31c0-9.25,1.66-17.96,4.99-26.14
			c3.33-8.18,8.01-15.37,14.04-21.58c6.03-6.2,13.03-11.08,20.98-14.64c7.95-3.55,16.55-5.33,25.8-5.33
			c8.12,0,15.51,1.18,22.17,3.55c6.65,2.37,13.08,6.15,19.29,11.34c1.01,0.79,1.61,1.72,1.78,2.79c0.17,1.07,0.02,2.09-0.42,3.05
			c-0.45,0.96-1.13,1.67-2.03,2.12c-0.23,0.9-0.79,1.58-1.69,2.03c-0.9,0.45-1.95,0.62-3.13,0.51c-1.18-0.11-2.34-0.62-3.47-1.52
			c-4.4-3.83-9.2-6.68-14.38-8.55c-5.19-1.86-11.23-2.79-18.11-2.79c-7.33,0-14.19,1.47-20.56,4.4
			c-6.37,2.93-11.99,6.94-16.84,12.01c-4.85,5.08-8.66,10.94-11.42,17.6c-2.77,6.66-4.15,13.71-4.15,21.15
			c0,7.67,1.38,14.84,4.15,21.49c2.76,6.66,6.57,12.52,11.42,17.6s10.46,9.05,16.84,11.93c6.37,2.88,13.23,4.32,20.56,4.32
			c6.2,0,12.07-1.01,17.6-3.05c5.52-2.03,10.77-4.96,15.74-8.8c1.35-1.13,2.79-1.58,4.32-1.35c1.52,0.23,2.85,0.9,3.98,2.03
			c1.13,1.13,1.69,2.6,1.69,4.4c0,0.9-0.11,1.72-0.34,2.45c-0.23,0.73-0.73,1.5-1.52,2.29c-5.75,5.3-12.18,9.05-19.29,11.25
			C642.12,987.9,634.73,989,627.06,989z M670.38,969.71L657.52,967v-34.01h-26.4c-1.92,0-3.5-0.56-4.74-1.69
			c-1.24-1.13-1.86-2.54-1.86-4.23c0-1.69,0.62-3.07,1.86-4.15c1.24-1.07,2.82-1.61,4.74-1.61h32.66c1.92,0,3.49,0.59,4.74,1.78
			c1.24,1.18,1.86,2.74,1.86,4.65V969.71z"/>
		<path class="st6" d="M736.71,988.32c-8.01,0-15.17-1.66-21.49-4.99c-6.32-3.33-11.31-8.21-14.98-14.64
			c-3.67-6.43-5.5-14.27-5.5-23.52v-44c0-1.8,0.62-3.32,1.86-4.57c1.24-1.24,2.76-1.86,4.57-1.86c1.92,0,3.49,0.62,4.74,1.86
			c1.24,1.24,1.86,2.76,1.86,4.57v44c0,7,1.33,12.75,3.98,17.26c2.65,4.51,6.26,7.9,10.83,10.15c4.57,2.26,9.73,3.38,15.48,3.38
			c5.53,0,10.52-1.07,14.98-3.22c4.46-2.14,7.98-5.08,10.58-8.8c2.59-3.72,3.89-7.95,3.89-12.69h9.31
			c-0.34,7.11-2.28,13.45-5.84,19.04s-8.32,9.98-14.3,13.2C750.69,986.72,744.04,988.32,736.71,988.32z M773.93,987.31
			c-1.92,0-3.47-0.59-4.65-1.78c-1.18-1.18-1.78-2.79-1.78-4.82v-79.53c0-1.92,0.59-3.47,1.78-4.65c1.18-1.18,2.73-1.78,4.65-1.78
			c1.92,0,3.49,0.59,4.74,1.78c1.24,1.18,1.86,2.74,1.86,4.65v79.53c0,2.03-0.62,3.64-1.86,4.82
			C777.43,986.72,775.85,987.31,773.93,987.31z"/>
		<path class="st6" d="M843.31,988.15c-6.66,0-13.26-1.13-19.8-3.38c-6.54-2.26-11.84-5.64-15.9-10.15
			c-1.24-1.35-1.75-2.88-1.52-4.57c0.23-1.69,1.07-3.16,2.54-4.4c1.58-1.13,3.22-1.58,4.91-1.35c1.69,0.23,3.1,0.96,4.23,2.2
			c2.71,3.16,6.29,5.58,10.74,7.28c4.46,1.69,9.39,2.54,14.81,2.54c8.35,0,14.38-1.44,18.11-4.32c3.72-2.88,5.64-6.35,5.75-10.41
			c0-4.06-1.92-7.42-5.75-10.07c-3.84-2.65-10.15-4.71-18.95-6.18c-11.4-1.8-19.74-4.96-25.04-9.48c-5.3-4.51-7.95-9.87-7.95-16.08
			c0-5.75,1.52-10.55,4.57-14.38c3.05-3.83,7.11-6.71,12.18-8.63c5.08-1.92,10.66-2.88,16.75-2.88c7.55,0,14.07,1.3,19.54,3.89
			c5.47,2.6,9.9,6.09,13.28,10.49c1.13,1.47,1.58,2.99,1.35,4.57c-0.23,1.58-1.13,2.88-2.71,3.89c-1.35,0.79-2.9,1.04-4.65,0.76
			c-1.75-0.28-3.24-1.1-4.49-2.45c-2.82-3.27-6.09-5.67-9.81-7.19c-3.72-1.52-8.01-2.28-12.86-2.28c-6.21,0-11.17,1.27-14.89,3.81
			c-3.72,2.54-5.58,5.73-5.58,9.56c0,2.6,0.7,4.85,2.12,6.77c1.41,1.92,3.83,3.61,7.27,5.08c3.44,1.47,8.26,2.71,14.47,3.72
			c8.46,1.35,15.15,3.36,20.05,6.01c4.91,2.65,8.4,5.75,10.49,9.31c2.09,3.55,3.13,7.42,3.13,11.59c0,5.3-1.55,9.96-4.65,13.96
			c-3.1,4.01-7.39,7.14-12.86,9.39C856.7,987.03,850.41,988.15,843.31,988.15z"/>
	</g>
	<g class="st1">
		<path class="st6" d="M564.11,379.06h-270.3c-1.75,0-3.17-1.42-3.17-3.17c0-1.75,1.42-3.17,3.17-3.17h270.3
			c1.75,0,3.17,1.42,3.17,3.17C567.28,377.64,565.86,379.06,564.11,379.06z"/>
		<path class="st6" d="M633.27,434.9H293.81c-1.75,0-3.17-1.42-3.17-3.17c0-1.75,1.42-3.17,3.17-3.17h339.46
			c1.75,0,3.17,1.42,3.17,3.17C636.44,433.48,635.02,434.9,633.27,434.9z"/>
		<path class="st6" d="M647.23,490.73H293.81c-1.75,0-3.17-1.42-3.17-3.17c0-1.75,1.42-3.17,3.17-3.17h353.42
			c1.75,0,3.17,1.42,3.17,3.17C650.4,489.31,648.98,490.73,647.23,490.73z"/>
		<path class="st6" d="M729.71,546.57h-435.9c-1.75,0-3.17-1.42-3.17-3.17s1.42-3.17,3.17-3.17h435.9c1.75,0,3.17,1.42,3.17,3.17
			S731.47,546.57,729.71,546.57z"/>
	</g>
</g>
<g>
	<g>
		<g>
			<defs>
				<filter id="Adobe_OpacityMaskFilter_1_" filterUnits="userSpaceOnUse" x="147.27" y="79" width="746.16" height="746.16">
					<feColorMatrix  type="matrix" values="1 0 0 0 0  0 1 0 0 0  0 0 1 0 0  0 0 0 1 0"/>
				</filter>
			</defs>
			<mask maskUnits="userSpaceOnUse" x="147.27" y="79" width="746.16" height="746.16" id="SVGID_2_">
				<g class="st7">
					<path class="st3" d="M80.1,36.88v797.15h870.58V36.88H80.1z M557.73,738.62H199.34V229.93h358.39V738.62z M919.84,329
						c0,2.78-0.08,5.61-0.23,8.42l18.74,6.09c6.89,2.24,12.49,7.03,15.78,13.48c3.29,6.45,3.87,13.81,1.63,20.69l-8.95,27.58
						C943.16,416.47,932.8,424,921.01,424c0,0,0,0,0,0c-2.85,0-5.66-0.45-8.38-1.33l-18.73-6.09c-3.03,4.66-6.36,9.23-9.91,13.6
						l11.59,15.96c4.26,5.86,5.98,13.03,4.85,20.18c-1.13,7.16-4.98,13.44-10.84,17.7l-23.46,17.04
						c-4.66,3.39-10.17,5.18-15.93,5.18c-8.66,0-16.87-4.18-21.95-11.18l-11.57-15.92c-5.21,2-10.6,3.74-16.02,5.19v19.69
						c0,14.96-12.17,27.12-27.12,27.12h-28.99c-14.96,0-27.12-12.16-27.12-27.12v-19.69c-5.4-1.44-10.79-3.19-16.02-5.2
						l-11.57,15.92c-5.09,7-13.3,11.18-21.95,11.18c-5.76,0-11.27-1.79-15.93-5.18l-23.46-17.04c-5.86-4.26-9.71-10.54-10.84-17.7
						c-1.13-7.16,0.59-14.33,4.84-20.19l11.59-15.95c-3.55-4.37-6.88-8.95-9.92-13.63l-18.72,6.12c-2.72,0.88-5.54,1.33-8.39,1.33
						c-11.78,0-22.15-7.54-25.79-18.75l-8.96-27.57c-4.62-14.23,3.2-29.55,17.42-34.17l18.74-6.09c-0.16-2.85-0.23-5.67-0.23-8.42
						s0.08-5.57,0.23-8.42l-18.74-6.09c-14.22-4.62-22.03-19.95-17.42-34.17l8.96-27.58c3.64-11.21,14.01-18.75,25.79-18.75
						c2.85,0,5.67,0.45,8.39,1.33l18.73,6.08c3.05-4.68,6.38-9.25,9.91-13.6l-11.59-15.95c-4.26-5.86-5.98-13.03-4.84-20.19
						c1.13-7.15,4.99-13.44,10.84-17.7l23.45-17.04c4.67-3.39,10.18-5.18,15.94-5.18c8.66,0,16.86,4.18,21.95,11.18l11.57,15.92
						c5.22-2,10.61-3.75,16.02-5.19v-19.69c0-14.96,12.17-27.12,27.12-27.12h28.99c14.96,0,27.12,12.16,27.12,27.12v19.69
						c5.4,1.44,10.79,3.19,16.02,5.2l11.57-15.92c5.08-7,13.29-11.18,21.95-11.18c5.76,0,11.27,1.79,15.93,5.18l23.45,17.04
						c5.86,4.26,9.71,10.54,10.85,17.7c1.13,7.15-0.59,14.32-4.85,20.18l-11.59,15.95c3.55,4.38,6.89,8.96,9.93,13.63l18.71-6.12
						c2.72-0.88,5.54-1.33,8.39-1.33c11.78,0,22.15,7.54,25.79,18.75l8.96,27.57c2.24,6.89,1.66,14.24-1.63,20.69
						c-3.29,6.45-8.89,11.24-15.78,13.48l-18.74,6.09C919.76,323.39,919.84,326.22,919.84,329z"/>
				</g>
			</mask>
			<path class="st8" d="M701.23,271.2C521.06,91.03,294.02,25.96,194.13,125.86s-34.82,326.93,145.34,507.1
				c180.17,180.17,407.21,245.24,507.1,145.34C946.47,678.41,881.4,451.37,701.23,271.2z M836.06,767.79
				c-87.71,87.71-301.08,16.53-476.58-158.98C183.98,433.31,112.8,219.94,200.5,132.24c87.71-87.7,301.08-16.53,476.58,158.98
				C852.59,466.72,923.77,680.09,836.06,767.79z"/>
			<path class="st3" d="M199.34,672.1c0,27.57,22.35,43.27,49.93,43.27h186.57v-4.6c0-11.25,9.12-20.36,20.36-20.36h103.79
				c11.25,0,20.36,9.12,20.36,20.36v4.6h186.57c27.57,0,49.93-15.7,49.93-43.27H199.34z"/>
			<path class="st3" d="M773.05,524.6h-14.02v59.55c0,12.68-10.28,22.97-22.97,22.97H280.11c-12.68,0-22.96-10.28-22.96-22.96
				V320.01c0-12.68,10.28-22.97,22.97-22.97h288.25c-1.35-4.81-1.35-10.05,0.3-15.14l5.32-16.39H277.62
				c-28.72,0-52.01,23.28-52.01,52.01v269.11c0,28.72,23.28,52.01,52.01,52.01h460.93c28.72,0,52.01-23.28,52.01-52.01v-68.79
				C785.91,522.03,779.79,524.6,773.05,524.6z"/>
			<path class="st3" d="M924.14,355.19l-18.22-5.92c-5.34-1.74-8.9-6.84-8.57-12.44c0.15-2.59,0.24-5.2,0.24-7.83
				c0-2.63-0.08-5.24-0.24-7.83c-0.33-5.61,3.23-10.71,8.57-12.44l18.22-5.92c6.53-2.12,10.11-9.14,7.98-15.67l-8.45-26.02
				c-2.12-6.53-9.14-10.11-15.67-7.98l-18.21,5.92c-5.32,1.73-11.18-0.28-14.21-4.98c-2.85-4.42-5.95-8.67-9.27-12.72
				c-3.55-4.34-3.67-10.55-0.37-15.09l11.27-15.5c4.04-5.56,2.8-13.33-2.75-17.37l-22.13-16.08c-5.56-4.04-13.33-2.81-17.37,2.75
				l-11.24,15.47c-3.29,4.53-9.23,6.34-14.45,4.31c-4.86-1.89-9.86-3.52-14.97-4.86c-5.42-1.42-9.15-6.38-9.15-11.98v-19.13
				c0-6.87-5.57-12.43-12.43-12.43h-27.35c-6.87,0-12.43,5.57-12.43,12.43v19.13c0,5.6-3.73,10.56-9.15,11.98
				c-5.11,1.34-10.11,2.96-14.97,4.86c-5.22,2.03-11.16,0.22-14.45-4.31l-11.24-15.47c-4.04-5.56-11.81-6.79-17.37-2.75
				l-22.13,16.08c-5.56,4.04-6.79,11.81-2.75,17.37l11.26,15.5c3.3,4.54,3.18,10.75-0.37,15.09c-3.32,4.06-6.42,8.3-9.27,12.72
				c-3.03,4.7-8.89,6.71-14.21,4.98l-18.21-5.92c-6.53-2.12-13.55,1.45-15.67,7.98l-8.45,26.02c-2.12,6.53,1.45,13.55,7.98,15.67
				l18.21,5.92c5.34,1.74,8.9,6.83,8.57,12.44c-0.15,2.59-0.24,5.2-0.24,7.83c0,2.63,0.08,5.24,0.24,7.83
				c0.33,5.61-3.23,10.71-8.57,12.44l-18.21,5.92c-6.53,2.12-10.11,9.14-7.98,15.67l8.45,26.02c2.12,6.53,9.14,10.11,15.67,7.98
				l18.21-5.92c5.32-1.73,11.18,0.28,14.21,4.98c2.85,4.42,5.95,8.67,9.27,12.72c3.55,4.34,3.67,10.55,0.37,15.09l-11.27,15.5
				c-4.04,5.56-2.8,13.33,2.75,17.37l22.13,16.08c5.56,4.04,13.33,2.81,17.37-2.75l11.24-15.48c3.29-4.53,9.23-6.34,14.45-4.31
				c4.86,1.89,9.86,3.52,14.97,4.86c5.42,1.42,9.15,6.38,9.15,11.98v19.14c0,6.87,5.57,12.43,12.43,12.43h27.35
				c6.87,0,12.43-5.57,12.43-12.43v-19.14c0-5.6,3.73-10.56,9.15-11.98c5.11-1.34,10.11-2.96,14.97-4.86
				c5.22-2.03,11.16-0.22,14.45,4.31l11.24,15.48c4.04,5.56,11.81,6.79,17.37,2.75l22.13-16.08c5.56-4.04,6.79-11.81,2.75-17.37
				l-11.27-15.51c-3.3-4.54-3.18-10.75,0.37-15.09c3.32-4.06,6.42-8.3,9.27-12.72c3.03-4.7,8.89-6.71,14.21-4.98l18.21,5.92
				c6.53,2.12,13.55-1.45,15.67-7.98l8.45-26.02C934.24,364.33,930.67,357.31,924.14,355.19z M759.03,422.3
				c-51.53,0-93.3-41.77-93.3-93.3s41.77-93.3,93.3-93.3c51.53,0,93.3,41.77,93.3,93.3S810.56,422.3,759.03,422.3z"/>
			
				<ellipse transform="matrix(0.7071 -0.7071 0.7071 0.7071 -10.3246 633.0757)" class="st3" cx="759.03" cy="329" rx="59.8" ry="59.8"/>
		</g>
	</g>
	<g>
		<path class="st3" d="M198.01,999.26c-1.85,0-3.45-0.63-4.78-1.91c-1.33-1.27-2-2.89-2-4.86V870.35c0-1.85,0.66-3.45,2-4.78
			c1.33-1.33,2.92-2,4.78-2c1.85,0,3.44,0.67,4.78,2c1.33,1.33,2,2.93,2,4.78v116.05h67.93c1.85,0,3.44,0.61,4.78,1.82
			c1.33,1.22,2,2.75,2,4.6c0,1.85-0.67,3.39-2,4.6c-1.33,1.22-2.93,1.82-4.78,1.82H198.01z"/>
		<path class="st3" d="M308.85,886.16c-2.55,0-4.75-0.92-6.6-2.78c-1.85-1.85-2.78-4.11-2.78-6.78c0-2.89,0.96-5.18,2.87-6.86
			c1.91-1.68,4.14-2.52,6.69-2.52c2.43,0,4.6,0.84,6.51,2.52c1.91,1.68,2.87,3.97,2.87,6.86c0,2.67-0.93,4.93-2.78,6.78
			C313.77,885.24,311.51,886.16,308.85,886.16z M309.02,999.26c-2.08,0-3.74-0.61-4.95-1.82c-1.22-1.22-1.82-2.87-1.82-4.95v-81.48
			c0-2.09,0.61-3.74,1.82-4.95c1.22-1.22,2.87-1.82,4.95-1.82c1.97,0,3.56,0.61,4.78,1.82c1.22,1.22,1.82,2.87,1.82,4.95v81.48
			c0,2.08-0.61,3.73-1.82,4.95C312.59,998.66,310.99,999.26,309.02,999.26z"/>
		<path class="st3" d="M356.45,999.26c-2.08,0-3.74-0.61-4.95-1.82c-1.22-1.22-1.82-2.81-1.82-4.78v-81.65
			c0-2.09,0.61-3.74,1.82-4.95c1.22-1.22,2.87-1.82,4.95-1.82c1.97,0,3.56,0.61,4.78,1.82c1.22,1.22,1.82,2.87,1.82,4.95v81.65
			c0,1.97-0.61,3.56-1.82,4.78C360.01,998.66,358.42,999.26,356.45,999.26z M431.16,999.26c-1.97,0-3.59-0.63-4.86-1.91
			c-1.28-1.27-1.91-2.84-1.91-4.69v-45.17c0-7.18-1.36-13.09-4.08-17.72c-2.72-4.63-6.43-8.11-11.12-10.42
			c-4.69-2.32-9.99-3.47-15.9-3.47c-5.68,0-10.8,1.1-15.38,3.3c-4.58,2.2-8.2,5.21-10.86,9.03c-2.67,3.82-4,8.16-4,13.03h-9.55
			c0.23-7.3,2.2-13.81,5.91-19.55c3.71-5.73,8.63-10.25,14.77-13.55c6.14-3.3,12.97-4.95,20.5-4.95c8.22,0,15.58,1.71,22.06,5.13
			c6.49,3.42,11.61,8.43,15.38,15.03c3.76,6.6,5.65,14.65,5.65,24.15v45.17c0,1.86-0.64,3.42-1.91,4.69
			C434.57,998.63,433.01,999.26,431.16,999.26z"/>
		<path class="st3" d="M473.89,999.26c-1.97,0-3.56-0.61-4.78-1.82c-1.22-1.22-1.82-2.81-1.82-4.78V870.18
			c0-1.97,0.61-3.56,1.82-4.78c1.21-1.22,2.81-1.82,4.78-1.82c1.97,0,3.56,0.61,4.78,1.82c1.22,1.22,1.82,2.81,1.82,4.78v122.48
			c0,1.97-0.61,3.56-1.82,4.78C477.46,998.66,475.86,999.26,473.89,999.26z M478.24,967.47l-8.17-8.86l59.42-53.68
			c1.39-1.27,2.84-1.88,4.34-1.82c1.5,0.06,2.89,0.78,4.17,2.17c1.27,1.39,1.88,2.87,1.82,4.43c-0.06,1.56-0.78,2.93-2.17,4.08
			L478.24,967.47z M538.18,998.39c-1.51,1.27-3.07,1.82-4.69,1.65c-1.62-0.17-3.01-1.01-4.17-2.52l-38.74-47.6l9.38-8.34
			l39.09,48.12c1.16,1.39,1.68,2.87,1.56,4.43C540.49,995.7,539.68,997.12,538.18,998.39z"/>
		<path class="st3" d="M629.38,1001c-9.38,0-18.15-1.79-26.32-5.38c-8.17-3.59-15.35-8.6-21.54-15.03
			c-6.2-6.43-11.03-13.84-14.51-22.24c-3.48-8.4-5.21-17.4-5.21-27.02c0-9.5,1.71-18.44,5.13-26.84c3.42-8.4,8.22-15.78,14.42-22.15
			c6.19-6.37,13.38-11.38,21.54-15.03c8.17-3.65,17-5.47,26.49-5.47c8.34,0,15.93,1.22,22.76,3.65c6.83,2.43,13.43,6.31,19.81,11.64
			c1.04,0.81,1.65,1.77,1.82,2.87c0.17,1.1,0.03,2.14-0.44,3.13c-0.46,0.98-1.16,1.71-2.08,2.17c-0.23,0.93-0.81,1.62-1.74,2.08
			c-0.93,0.46-2,0.64-3.21,0.52c-1.22-0.11-2.4-0.64-3.56-1.56c-4.52-3.94-9.44-6.86-14.77-8.77c-5.33-1.91-11.53-2.87-18.59-2.87
			c-7.53,0-14.57,1.51-21.11,4.52c-6.55,3.01-12.31,7.12-17.29,12.33c-4.98,5.21-8.89,11.24-11.73,18.07
			c-2.84,6.84-4.26,14.07-4.26,21.72c0,7.88,1.42,15.23,4.26,22.06c2.84,6.84,6.75,12.86,11.73,18.07
			c4.98,5.21,10.74,9.29,17.29,12.25c6.54,2.95,13.58,4.43,21.11,4.43c6.37,0,12.39-1.04,18.07-3.13
			c5.67-2.08,11.06-5.09,16.16-9.03c1.39-1.16,2.87-1.62,4.43-1.39c1.56,0.23,2.92,0.93,4.08,2.08c1.16,1.16,1.74,2.67,1.74,4.52
			c0,0.93-0.12,1.77-0.35,2.52c-0.23,0.75-0.75,1.54-1.56,2.35c-5.91,5.44-12.51,9.29-19.81,11.55
			C644.85,999.87,637.26,1001,629.38,1001z M673.86,981.19l-13.2-2.78v-34.92h-27.1c-1.97,0-3.59-0.58-4.87-1.74
			c-1.27-1.16-1.91-2.61-1.91-4.34c0-1.74,0.64-3.16,1.91-4.26c1.27-1.1,2.89-1.65,4.87-1.65h33.53c1.97,0,3.59,0.61,4.87,1.82
			c1.27,1.22,1.91,2.81,1.91,4.78V981.19z"/>
		<path class="st3" d="M741.96,1000.31c-8.22,0-15.58-1.71-22.07-5.13c-6.49-3.42-11.61-8.43-15.38-15.03
			c-3.76-6.6-5.65-14.65-5.65-24.15v-45.17c0-1.85,0.64-3.41,1.91-4.69c1.27-1.27,2.84-1.91,4.69-1.91c1.97,0,3.59,0.64,4.86,1.91
			c1.27,1.28,1.91,2.84,1.91,4.69V956c0,7.18,1.36,13.09,4.08,17.72c2.72,4.63,6.43,8.11,11.12,10.42c4.69,2.32,9.99,3.47,15.9,3.47
			c5.67,0,10.8-1.1,15.38-3.3c4.58-2.2,8.19-5.21,10.86-9.03s4-8.17,4-13.03h9.56c-0.35,7.3-2.34,13.81-5.99,19.54
			c-3.65,5.73-8.54,10.25-14.68,13.55C756.32,998.66,749.49,1000.31,741.96,1000.31z M780.19,999.26c-1.97,0-3.56-0.61-4.78-1.82
			c-1.22-1.22-1.82-2.87-1.82-4.95v-81.66c0-1.97,0.61-3.56,1.82-4.78c1.22-1.22,2.81-1.82,4.78-1.82c1.97,0,3.59,0.61,4.86,1.82
			c1.27,1.22,1.91,2.81,1.91,4.78v81.66c0,2.08-0.64,3.73-1.91,4.95C783.77,998.66,782.15,999.26,780.19,999.26z"/>
		<path class="st3" d="M851.41,1000.13c-6.84,0-13.61-1.16-20.33-3.47c-6.72-2.32-12.16-5.79-16.33-10.42
			c-1.28-1.39-1.8-2.95-1.57-4.69c0.23-1.74,1.1-3.24,2.61-4.52c1.62-1.16,3.3-1.62,5.04-1.39c1.74,0.23,3.19,0.99,4.34,2.26
			c2.78,3.24,6.46,5.73,11.03,7.47c4.58,1.74,9.64,2.61,15.2,2.61c8.57,0,14.77-1.48,18.59-4.43c3.82-2.95,5.79-6.52,5.91-10.69
			c0-4.17-1.97-7.61-5.91-10.34c-3.94-2.72-10.42-4.84-19.46-6.34c-11.7-1.85-20.27-5.09-25.71-9.73
			c-5.45-4.63-8.17-10.13-8.17-16.51c0-5.91,1.56-10.83,4.69-14.77c3.13-3.94,7.3-6.89,12.51-8.86c5.21-1.97,10.95-2.95,17.2-2.95
			c7.76,0,14.45,1.33,20.07,4c5.62,2.67,10.16,6.25,13.64,10.77c1.16,1.51,1.62,3.07,1.39,4.69c-0.23,1.62-1.16,2.95-2.78,4
			c-1.39,0.81-2.98,1.07-4.78,0.78c-1.8-0.29-3.33-1.13-4.61-2.52c-2.9-3.36-6.25-5.82-10.07-7.38c-3.82-1.56-8.23-2.35-13.2-2.35
			c-6.37,0-11.47,1.3-15.29,3.91s-5.73,5.88-5.73,9.82c0,2.67,0.72,4.98,2.17,6.95c1.45,1.97,3.93,3.71,7.47,5.21
			c3.53,1.51,8.48,2.78,14.85,3.82c8.69,1.39,15.55,3.45,20.59,6.17c5.04,2.72,8.63,5.91,10.77,9.56c2.14,3.65,3.21,7.62,3.21,11.9
			c0,5.45-1.59,10.22-4.78,14.33c-3.19,4.11-7.59,7.33-13.2,9.64C865.16,998.98,858.71,1000.13,851.41,1000.13z"/>
	</g>
	<g>
		<path class="st3" d="M564.75,374.76H287.23c-1.8,0-3.26-1.46-3.26-3.26c0-1.8,1.46-3.26,3.26-3.26h277.52
			c1.8,0,3.26,1.46,3.26,3.26C568.01,373.3,566.55,374.76,564.75,374.76z"/>
		<path class="st3" d="M635.76,432.09H287.23c-1.8,0-3.26-1.46-3.26-3.26s1.46-3.26,3.26-3.26h348.53c1.8,0,3.26,1.46,3.26,3.26
			S637.56,432.09,635.76,432.09z"/>
		<path class="st3" d="M650.1,489.42H287.23c-1.8,0-3.26-1.46-3.26-3.26c0-1.8,1.46-3.26,3.26-3.26H650.1c1.8,0,3.26,1.46,3.26,3.26
			C653.35,487.96,651.89,489.42,650.1,489.42z"/>
		<path class="st3" d="M734.78,546.75H287.23c-1.8,0-3.26-1.46-3.26-3.26s1.46-3.26,3.26-3.26h447.55c1.8,0,3.26,1.46,3.26,3.26
			S736.58,546.75,734.78,546.75z"/>
	</g>
</g>
</svg>
