<?xml version="1.0" encoding="utf-8"?>
<!-- Generator: Adobe Illustrator 25.2.3, SVG Export Plug-In . SVG Version: 6.00 Build 0)  -->
<svg version="1.1" id="Camada_1" xmlns="http://www.w3.org/2000/svg" xmlns:xlink="http://www.w3.org/1999/xlink" x="0px" y="0px"
	 viewBox="0 0 1080 1080" style="enable-background:new 0 0 1080 1080;" xml:space="preserve">
<style type="text/css">
	.st0{filter:url(#Adobe_OpacityMaskFilter);}
	.st1{fill:#FFFFFF;}
	.st2{mask:url(#SVGID_1_);fill:#6D6C80;}
	.st3{fill:#106A75;}
	.st4{fill:#6D6C80;}
	.st5{filter:url(#Adobe_OpacityMaskFilter_1_);}
	.st6{mask:url(#SVGID_2_);fill:#FFFFFF;}
</style>
<text transform="matrix(1 0 0 1 -519.332 490.2344)" style="font-family:'MyriadPro-Regular'; font-size:74.2097px;">#106a75</text>
<g>
	<g>
		<g>
			<defs>
				<filter id="Adobe_OpacityMaskFilter" filterUnits="userSpaceOnUse" x="157.49" y="91" width="726.74" height="726.74">
					<feColorMatrix  type="matrix" values="1 0 0 0 0  0 1 0 0 0  0 0 1 0 0  0 0 0 1 0"/>
				</filter>
			</defs>
			<mask maskUnits="userSpaceOnUse" x="157.49" y="91" width="726.74" height="726.74" id="SVGID_1_">
				<g class="st0">
					<path class="st1" d="M92.07,49.98v776.4h847.92V49.98H92.07z M557.27,733.45H208.2V238h349.06V733.45z M909.96,334.49
						c0,2.71-0.08,5.46-0.23,8.2l18.25,5.93c6.71,2.18,12.17,6.85,15.37,13.13c3.2,6.29,3.77,13.45,1.58,20.16l-8.72,26.86
						c-3.55,10.92-13.64,18.26-25.12,18.26c0,0,0,0,0,0c-2.77,0-5.52-0.44-8.16-1.3l-18.25-5.93c-2.95,4.54-6.2,8.99-9.65,13.25
						l11.29,15.54c4.15,5.71,5.82,12.69,4.72,19.65c-1.1,6.97-4.85,13.09-10.56,17.24l-22.85,16.6c-4.54,3.3-9.91,5.05-15.51,5.05
						c-8.44,0-16.43-4.07-21.38-10.89l-11.26-15.5c-5.08,1.95-10.32,3.65-15.6,5.06v19.18c0,14.57-11.85,26.41-26.42,26.41h-28.24
						c-14.57,0-26.42-11.85-26.42-26.41v-19.18c-5.26-1.41-10.51-3.11-15.6-5.06l-11.26,15.5c-4.96,6.82-12.95,10.89-21.38,10.89
						c-5.61,0-10.97-1.74-15.52-5.05l-22.85-16.6c-5.71-4.15-9.46-10.27-10.56-17.24c-1.1-6.97,0.57-13.95,4.72-19.66l11.29-15.53
						c-3.45-4.26-6.7-8.72-9.67-13.28l-18.23,5.96c-2.65,0.86-5.4,1.3-8.17,1.3c-11.48,0-21.57-7.34-25.12-18.26l-8.73-26.86
						c-4.49-13.86,3.12-28.78,16.96-33.28l18.25-5.93c-0.15-2.77-0.23-5.53-0.23-8.2c0-2.67,0.08-5.43,0.23-8.2l-18.25-5.93
						c-13.85-4.5-21.46-19.43-16.96-33.28l8.73-26.87c3.55-10.92,13.64-18.26,25.12-18.26c2.77,0,5.52,0.44,8.17,1.3l18.24,5.92
						c2.97-4.56,6.22-9.01,9.65-13.25l-11.29-15.53c-4.15-5.71-5.82-12.69-4.72-19.66c1.1-6.97,4.86-13.09,10.56-17.24l22.84-16.6
						c4.55-3.3,9.91-5.05,15.52-5.05c8.43,0,16.43,4.07,21.38,10.89l11.27,15.5c5.09-1.95,10.33-3.65,15.6-5.06v-19.18
						c0-14.57,11.85-26.41,26.42-26.41h28.24c14.57,0,26.42,11.85,26.42,26.41v19.18c5.26,1.4,10.51,3.1,15.6,5.06l11.26-15.5
						c4.95-6.82,12.95-10.89,21.38-10.89c5.61,0,10.97,1.74,15.52,5.05l22.84,16.6c5.71,4.15,9.46,10.27,10.57,17.24
						c1.1,6.97-0.57,13.95-4.72,19.66l-11.29,15.54c3.46,4.27,6.71,8.73,9.67,13.28l18.23-5.96c2.65-0.86,5.4-1.3,8.17-1.3
						c11.48,0,21.57,7.34,25.12,18.26l8.73,26.86c2.18,6.71,1.61,13.87-1.59,20.16c-3.2,6.29-8.66,10.95-15.37,13.13l-18.25,5.93
						C909.88,329.03,909.96,331.79,909.96,334.49z"/>
				</g>
			</mask>
			<path class="st2" d="M697.03,278.2C521.55,102.72,300.43,39.34,203.13,136.64s-33.92,318.42,141.56,493.9
				C520.17,806.02,741.3,869.4,838.59,772.1C935.89,674.81,872.51,453.68,697.03,278.2z M828.36,761.87
				c-85.42,85.42-293.24,16.1-464.18-154.84C193.24,436.09,123.92,228.27,209.34,142.85c85.42-85.42,293.24-16.1,464.18,154.84
				C844.46,468.62,913.78,676.44,828.36,761.87z"/>
			<path class="st3" d="M208.2,668.66c0,26.86,21.77,42.14,48.63,42.14h181.71v-4.48c0-10.95,8.88-19.83,19.83-19.83h101.09
				c10.95,0,19.83,8.88,19.83,19.83v4.48h181.71c26.86,0,48.63-15.29,48.63-42.14H208.2z"/>
			<path class="st3" d="M766.99,525h-13.66v58c0,12.35-10.01,22.37-22.37,22.37H286.87c-12.35,0-22.36-10.01-22.36-22.36V325.74
				c0-12.35,10.01-22.37,22.37-22.37h280.75c-1.31-4.68-1.32-9.79,0.29-14.75l5.18-15.96H284.45c-27.98,0-50.65,22.68-50.65,50.65
				v262.11c0,27.98,22.68,50.65,50.65,50.65h448.94c27.98,0,50.65-22.68,50.65-50.65v-67C779.51,522.5,773.54,525,766.99,525z"/>
			<path class="st4" d="M914.14,360l-17.74-5.76c-5.2-1.69-8.67-6.66-8.34-12.12c0.15-2.52,0.23-5.07,0.23-7.63
				c0-2.56-0.08-5.1-0.23-7.63c-0.32-5.46,3.14-10.43,8.34-12.12l17.74-5.76c6.36-2.07,9.84-8.9,7.78-15.26l-8.23-25.34
				c-2.07-6.36-8.9-9.84-15.26-7.78l-17.73,5.76c-5.18,1.68-10.89-0.27-13.84-4.85c-2.78-4.3-5.79-8.44-9.03-12.39
				c-3.46-4.23-3.57-10.27-0.36-14.69l10.97-15.1c3.93-5.41,2.73-12.98-2.68-16.92l-21.55-15.66c-5.41-3.93-12.99-2.73-16.92,2.68
				l-10.95,15.07c-3.21,4.42-8.99,6.18-14.08,4.2c-4.74-1.84-9.6-3.42-14.58-4.73c-5.28-1.38-8.91-6.22-8.91-11.67v-18.64
				c0-6.69-5.42-12.11-12.11-12.11h-26.64c-6.69,0-12.11,5.42-12.11,12.11v18.64c0,5.46-3.64,10.29-8.92,11.67
				c-4.98,1.31-9.85,2.89-14.58,4.73c-5.09,1.98-10.87,0.22-14.08-4.2l-10.95-15.07c-3.93-5.41-11.51-6.61-16.92-2.68l-21.55,15.66
				c-5.41,3.93-6.61,11.5-2.68,16.92l10.97,15.1c3.21,4.42,3.1,10.47-0.36,14.69c-3.23,3.95-6.25,8.09-9.03,12.39
				c-2.95,4.58-8.66,6.54-13.84,4.85l-17.73-5.76c-6.36-2.07-13.19,1.41-15.26,7.78l-8.23,25.34c-2.07,6.36,1.41,13.19,7.78,15.26
				l17.74,5.76c5.2,1.69,8.67,6.66,8.34,12.12c-0.15,2.52-0.23,5.07-0.23,7.63c0,2.56,0.08,5.11,0.23,7.63
				c0.32,5.46-3.14,10.43-8.34,12.12L592.52,360c-6.36,2.07-9.84,8.9-7.78,15.26l8.23,25.34c2.07,6.36,8.9,9.84,15.26,7.78
				l17.73-5.76c5.18-1.68,10.89,0.27,13.84,4.85c2.78,4.3,5.79,8.44,9.03,12.39c3.46,4.23,3.57,10.27,0.36,14.69l-10.97,15.1
				c-3.93,5.41-2.73,12.98,2.68,16.92l21.55,15.66c5.41,3.93,12.99,2.73,16.92-2.68l10.95-15.07c3.21-4.42,8.99-6.18,14.08-4.2
				c4.74,1.84,9.6,3.42,14.58,4.73c5.28,1.38,8.92,6.22,8.92,11.67v18.64c0,6.69,5.42,12.11,12.11,12.11h26.64
				c6.69,0,12.11-5.42,12.11-12.11v-18.64c0-5.46,3.64-10.29,8.91-11.67c4.98-1.31,9.84-2.89,14.58-4.73
				c5.09-1.98,10.87-0.22,14.08,4.2l10.95,15.07c3.93,5.41,11.51,6.61,16.92,2.68l21.55-15.66c5.41-3.93,6.61-11.5,2.68-16.92
				l-10.97-15.1c-3.21-4.42-3.1-10.47,0.36-14.69c3.23-3.95,6.25-8.09,9.03-12.39c2.95-4.58,8.66-6.54,13.84-4.85l17.73,5.76
				c6.36,2.07,13.19-1.41,15.26-7.78l8.23-25.34C923.98,368.9,920.5,362.07,914.14,360z M753.33,425.37
				c-50.19,0-90.87-40.69-90.87-90.87s40.69-90.87,90.87-90.87c50.19,0,90.88,40.69,90.88,90.87S803.51,425.37,753.33,425.37z"/>
			
				<ellipse transform="matrix(0.7071 -0.7071 0.7071 0.7071 -15.8782 630.6529)" class="st3" cx="753.33" cy="334.49" rx="58.24" ry="58.24"/>
		</g>
	</g>
	<g>
		<path class="st3" d="M206.91,987.31c-1.81,0-3.36-0.62-4.65-1.86c-1.3-1.24-1.95-2.82-1.95-4.74V861.75c0-1.8,0.65-3.36,1.95-4.65
			c1.3-1.3,2.85-1.95,4.65-1.95c1.8,0,3.36,0.65,4.65,1.95c1.3,1.3,1.95,2.85,1.95,4.65v113.03h66.16c1.8,0,3.36,0.59,4.65,1.78
			c1.3,1.18,1.95,2.68,1.95,4.48c0,1.81-0.65,3.3-1.95,4.48c-1.3,1.18-2.85,1.78-4.65,1.78H206.91z"/>
		<path class="st3" d="M314.87,877.15c-2.48,0-4.63-0.9-6.43-2.71c-1.81-1.8-2.71-4-2.71-6.6c0-2.82,0.93-5.05,2.79-6.68
			c1.86-1.63,4.03-2.45,6.51-2.45c2.37,0,4.48,0.82,6.34,2.45c1.86,1.64,2.79,3.87,2.79,6.68c0,2.6-0.9,4.8-2.71,6.6
			C319.66,876.25,317.46,877.15,314.87,877.15z M315.04,987.31c-2.03,0-3.64-0.59-4.82-1.78c-1.18-1.18-1.78-2.79-1.78-4.82v-79.36
			c0-2.03,0.59-3.64,1.78-4.82c1.18-1.18,2.79-1.78,4.82-1.78c1.92,0,3.47,0.59,4.65,1.78c1.18,1.18,1.78,2.79,1.78,4.82v79.36
			c0,2.03-0.59,3.64-1.78,4.82C318.51,986.72,316.95,987.31,315.04,987.31z"/>
		<path class="st3" d="M361.23,987.31c-2.03,0-3.64-0.59-4.82-1.78c-1.18-1.18-1.78-2.73-1.78-4.65v-79.53
			c0-2.03,0.59-3.64,1.78-4.82c1.18-1.18,2.79-1.78,4.82-1.78c1.92,0,3.47,0.59,4.65,1.78c1.18,1.18,1.78,2.79,1.78,4.82v79.53
			c0,1.92-0.59,3.47-1.78,4.65C364.7,986.72,363.15,987.31,361.23,987.31z M433.99,987.31c-1.92,0-3.5-0.62-4.74-1.86
			c-1.24-1.24-1.86-2.76-1.86-4.57v-43.99c0-6.99-1.33-12.75-3.98-17.26c-2.65-4.51-6.26-7.9-10.83-10.15
			c-4.57-2.26-9.73-3.38-15.48-3.38c-5.53,0-10.52,1.07-14.98,3.22c-4.46,2.14-7.98,5.08-10.58,8.8c-2.6,3.72-3.89,7.95-3.89,12.69
			h-9.31c0.22-7.11,2.14-13.45,5.75-19.04c3.61-5.58,8.4-9.98,14.38-13.2c5.98-3.21,12.63-4.82,19.97-4.82
			c8.01,0,15.17,1.67,21.49,4.99c6.32,3.33,11.31,8.21,14.98,14.64c3.66,6.43,5.5,14.27,5.5,23.52v43.99c0,1.81-0.62,3.33-1.86,4.57
			C437.32,986.69,435.79,987.31,433.99,987.31z"/>
		<path class="st3" d="M475.61,987.31c-1.92,0-3.47-0.59-4.65-1.78c-1.18-1.18-1.78-2.73-1.78-4.65V861.58
			c0-1.92,0.59-3.47,1.78-4.65c1.18-1.18,2.73-1.78,4.65-1.78c1.92,0,3.47,0.59,4.65,1.78c1.18,1.18,1.78,2.74,1.78,4.65v119.29
			c0,1.92-0.59,3.47-1.78,4.65C479.08,986.72,477.53,987.31,475.61,987.31z M479.85,956.34l-7.95-8.63l57.87-52.29
			c1.35-1.24,2.76-1.83,4.23-1.78c1.46,0.06,2.82,0.76,4.06,2.12c1.24,1.35,1.83,2.79,1.78,4.32c-0.06,1.52-0.76,2.85-2.11,3.98
			L479.85,956.34z M538.22,986.46c-1.47,1.24-2.99,1.78-4.57,1.61c-1.58-0.17-2.93-0.99-4.06-2.45l-37.74-46.36l9.14-8.12
			L539.07,978c1.13,1.35,1.63,2.79,1.52,4.32C540.48,983.84,539.69,985.22,538.22,986.46z"/>
		<path class="st4" d="M627.06,989c-9.14,0-17.68-1.75-25.64-5.24c-7.95-3.5-14.95-8.38-20.98-14.64
			c-6.04-6.26-10.74-13.48-14.13-21.66c-3.39-8.18-5.08-16.95-5.08-26.31c0-9.25,1.66-17.96,4.99-26.14
			c3.33-8.18,8.01-15.37,14.04-21.58c6.03-6.2,13.03-11.08,20.98-14.64c7.95-3.55,16.55-5.33,25.8-5.33
			c8.12,0,15.51,1.18,22.17,3.55c6.65,2.37,13.08,6.15,19.29,11.34c1.01,0.79,1.61,1.72,1.78,2.79c0.17,1.07,0.02,2.09-0.42,3.05
			c-0.45,0.96-1.13,1.67-2.03,2.12c-0.23,0.9-0.79,1.58-1.69,2.03c-0.9,0.45-1.95,0.62-3.13,0.51c-1.18-0.11-2.34-0.62-3.47-1.52
			c-4.4-3.83-9.2-6.68-14.38-8.55c-5.19-1.86-11.23-2.79-18.11-2.79c-7.33,0-14.19,1.47-20.56,4.4
			c-6.37,2.93-11.99,6.94-16.84,12.01c-4.85,5.08-8.66,10.94-11.42,17.6c-2.77,6.66-4.15,13.71-4.15,21.15
			c0,7.67,1.38,14.84,4.15,21.49c2.76,6.66,6.57,12.52,11.42,17.6s10.46,9.05,16.84,11.93c6.37,2.88,13.23,4.32,20.56,4.32
			c6.2,0,12.07-1.01,17.6-3.05c5.52-2.03,10.77-4.96,15.74-8.8c1.35-1.13,2.79-1.58,4.32-1.35c1.52,0.23,2.85,0.9,3.98,2.03
			c1.13,1.13,1.69,2.6,1.69,4.4c0,0.9-0.11,1.72-0.34,2.45c-0.23,0.73-0.73,1.5-1.52,2.29c-5.75,5.3-12.18,9.05-19.29,11.25
			C642.12,987.9,634.73,989,627.06,989z M670.38,969.71L657.52,967v-34.01h-26.4c-1.92,0-3.5-0.56-4.74-1.69
			c-1.24-1.13-1.86-2.54-1.86-4.23c0-1.69,0.62-3.07,1.86-4.15c1.24-1.07,2.82-1.61,4.74-1.61h32.66c1.92,0,3.49,0.59,4.74,1.78
			c1.24,1.18,1.86,2.74,1.86,4.65V969.71z"/>
		<path class="st4" d="M736.71,988.32c-8.01,0-15.17-1.66-21.49-4.99c-6.32-3.33-11.31-8.21-14.98-14.64
			c-3.67-6.43-5.5-14.27-5.5-23.52v-44c0-1.8,0.62-3.32,1.86-4.57c1.24-1.24,2.76-1.86,4.57-1.86c1.92,0,3.49,0.62,4.74,1.86
			c1.24,1.24,1.86,2.76,1.86,4.57v44c0,7,1.33,12.75,3.98,17.26c2.65,4.51,6.26,7.9,10.83,10.15c4.57,2.26,9.73,3.38,15.48,3.38
			c5.53,0,10.52-1.07,14.98-3.22c4.46-2.14,7.98-5.08,10.58-8.8c2.59-3.72,3.89-7.95,3.89-12.69h9.31
			c-0.34,7.11-2.28,13.45-5.84,19.04s-8.32,9.98-14.3,13.2C750.69,986.72,744.04,988.32,736.71,988.32z M773.93,987.31
			c-1.92,0-3.47-0.59-4.65-1.78c-1.18-1.18-1.78-2.79-1.78-4.82v-79.53c0-1.92,0.59-3.47,1.78-4.65c1.18-1.18,2.73-1.78,4.65-1.78
			c1.92,0,3.49,0.59,4.74,1.78c1.24,1.18,1.86,2.74,1.86,4.65v79.53c0,2.03-0.62,3.64-1.86,4.82
			C777.43,986.72,775.85,987.31,773.93,987.31z"/>
		<path class="st4" d="M843.31,988.15c-6.66,0-13.26-1.13-19.8-3.38c-6.54-2.26-11.84-5.64-15.9-10.15
			c-1.24-1.35-1.75-2.88-1.52-4.57c0.23-1.69,1.07-3.16,2.54-4.4c1.58-1.13,3.22-1.58,4.91-1.35c1.69,0.23,3.1,0.96,4.23,2.2
			c2.71,3.16,6.29,5.58,10.74,7.28c4.46,1.69,9.39,2.54,14.81,2.54c8.35,0,14.38-1.44,18.11-4.32c3.72-2.88,5.64-6.35,5.75-10.41
			c0-4.06-1.92-7.42-5.75-10.07c-3.84-2.65-10.15-4.71-18.95-6.18c-11.4-1.8-19.74-4.96-25.04-9.48c-5.3-4.51-7.95-9.87-7.95-16.08
			c0-5.75,1.52-10.55,4.57-14.38c3.05-3.83,7.11-6.71,12.18-8.63c5.08-1.92,10.66-2.88,16.75-2.88c7.55,0,14.07,1.3,19.54,3.89
			c5.47,2.6,9.9,6.09,13.28,10.49c1.13,1.47,1.58,2.99,1.35,4.57c-0.23,1.58-1.13,2.88-2.71,3.89c-1.35,0.79-2.9,1.04-4.65,0.76
			c-1.75-0.28-3.24-1.1-4.49-2.45c-2.82-3.27-6.09-5.67-9.81-7.19c-3.72-1.52-8.01-2.28-12.86-2.28c-6.21,0-11.17,1.27-14.89,3.81
			c-3.72,2.54-5.58,5.73-5.58,9.56c0,2.6,0.7,4.85,2.12,6.77c1.41,1.92,3.83,3.61,7.27,5.08c3.44,1.47,8.26,2.71,14.47,3.72
			c8.46,1.35,15.15,3.36,20.05,6.01c4.91,2.65,8.4,5.75,10.49,9.31c2.09,3.55,3.13,7.42,3.13,11.59c0,5.3-1.55,9.96-4.65,13.96
			c-3.1,4.01-7.39,7.14-12.86,9.39C856.7,987.03,850.41,988.15,843.31,988.15z"/>
	</g>
	<g>
		<path class="st4" d="M564.11,379.06h-270.3c-1.75,0-3.17-1.42-3.17-3.17c0-1.75,1.42-3.17,3.17-3.17h270.3
			c1.75,0,3.17,1.42,3.17,3.17C567.28,377.64,565.86,379.06,564.11,379.06z"/>
		<path class="st4" d="M633.27,434.9H293.81c-1.75,0-3.17-1.42-3.17-3.17c0-1.75,1.42-3.17,3.17-3.17h339.46
			c1.75,0,3.17,1.42,3.17,3.17C636.44,433.48,635.02,434.9,633.27,434.9z"/>
		<path class="st4" d="M647.23,490.73H293.81c-1.75,0-3.17-1.42-3.17-3.17c0-1.75,1.42-3.17,3.17-3.17h353.42
			c1.75,0,3.17,1.42,3.17,3.17C650.4,489.31,648.98,490.73,647.23,490.73z"/>
		<path class="st4" d="M729.71,546.57h-435.9c-1.75,0-3.17-1.42-3.17-3.17s1.42-3.17,3.17-3.17h435.9c1.75,0,3.17,1.42,3.17,3.17
			S731.47,546.57,729.71,546.57z"/>
	</g>
</g>
<g>
	<g>
		<g>
			<defs>
				<filter id="Adobe_OpacityMaskFilter_1_" filterUnits="userSpaceOnUse" x="1162.57" y="186.18" width="572.69" height="572.69">
					<feColorMatrix  type="matrix" values="1 0 0 0 0  0 1 0 0 0  0 0 1 0 0  0 0 0 1 0"/>
				</filter>
			</defs>
			<mask maskUnits="userSpaceOnUse" x="1162.57" y="186.18" width="572.69" height="572.69" id="SVGID_2_">
				<g class="st5">
					<path class="st1" d="M1111.02,153.85v611.82h668.18V153.85H1111.02z M1477.61,692.44h-275.07V302.02h275.07V692.44z
						 M1755.53,378.06c0,2.13-0.06,4.3-0.18,6.46l14.38,4.67c5.29,1.72,9.59,5.39,12.11,10.35c2.52,4.95,2.97,10.6,1.25,15.88
						l-6.87,21.17c-2.8,8.61-10.75,14.39-19.8,14.39c0,0,0,0,0,0c-2.18,0-4.35-0.34-6.43-1.02l-14.38-4.67
						c-2.33,3.58-4.88,7.09-7.6,10.44l8.9,12.25c3.27,4.5,4.59,10,3.72,15.49c-0.87,5.49-3.82,10.32-8.32,13.59l-18.01,13.08
						c-3.58,2.6-7.81,3.98-12.23,3.98c-6.65,0-12.95-3.21-16.85-8.58l-8.88-12.22c-4,1.53-8.13,2.87-12.3,3.99v15.11
						c0,11.48-9.34,20.82-20.82,20.82h-22.25c-11.48,0-20.82-9.34-20.82-20.82v-15.11c-4.15-1.11-8.28-2.45-12.3-3.99l-8.88,12.22
						c-3.91,5.38-10.21,8.58-16.85,8.58c-4.42,0-8.65-1.37-12.23-3.98l-18-13.08c-4.5-3.27-7.45-8.09-8.32-13.58
						c-0.87-5.49,0.45-11,3.72-15.49l8.9-12.24c-2.72-3.36-5.28-6.87-7.62-10.46l-14.37,4.69c-2.09,0.68-4.25,1.02-6.44,1.02
						c-9.04,0-17-5.78-19.8-14.39l-6.88-21.16c-3.54-10.92,2.46-22.68,13.37-26.23l14.38-4.67c-0.12-2.18-0.18-4.35-0.18-6.46
						s0.06-4.28,0.18-6.46l-14.38-4.67c-10.91-3.55-16.91-15.31-13.37-26.23l6.88-21.17c2.8-8.61,10.75-14.39,19.8-14.39
						c2.18,0,4.35,0.34,6.44,1.02l14.38,4.67c2.34-3.59,4.9-7.1,7.61-10.44l-8.9-12.24c-3.27-4.5-4.59-10-3.72-15.49
						c0.87-5.49,3.83-10.32,8.32-13.58l18-13.08c3.58-2.6,7.81-3.98,12.23-3.98c6.64,0,12.94,3.21,16.85,8.58l8.88,12.22
						c4.01-1.54,8.14-2.88,12.3-3.99v-15.11c0-11.48,9.34-20.82,20.82-20.82h22.25c11.48,0,20.82,9.34,20.82,20.82v15.11
						c4.15,1.11,8.28,2.45,12.3,3.99l8.88-12.22c3.9-5.37,10.2-8.58,16.85-8.58c4.42,0,8.65,1.37,12.23,3.98l18,13.08
						c4.5,3.27,7.46,8.09,8.33,13.59c0.87,5.49-0.45,10.99-3.72,15.49l-8.9,12.24c2.73,3.36,5.29,6.88,7.62,10.46l14.36-4.69
						c2.09-0.68,4.25-1.02,6.44-1.02c9.04,0,17,5.78,19.8,14.39l6.88,21.16c1.72,5.29,1.27,10.93-1.25,15.88
						c-2.52,4.95-6.83,8.63-12.11,10.34l-14.38,4.67C1755.47,373.75,1755.53,375.92,1755.53,378.06z"/>
				</g>
			</mask>
			<path class="st6" d="M1587.75,333.7c-138.28-138.28-312.53-188.23-389.21-111.55c-76.67,76.67-26.73,250.93,111.55,389.21
				c138.28,138.28,312.54,188.23,389.21,111.55C1775.97,646.23,1726.03,471.98,1587.75,333.7z M1691.23,714.84
				c-67.32,67.31-231.08,12.69-365.78-122.02c-134.7-134.7-189.33-298.47-122.02-365.78c67.32-67.31,231.08-12.69,365.78,122.02
				C1703.92,483.75,1758.55,647.52,1691.23,714.84z"/>
			<path class="st1" d="M1202.54,641.39c0,21.16,17.16,33.21,38.32,33.21h143.19v-3.53c0-8.63,7-15.63,15.63-15.63h79.66
				c8.63,0,15.63,7,15.63,15.63v3.53h143.19c21.16,0,38.32-12.05,38.32-33.21H1202.54z"/>
			<path class="st1" d="M1642.87,528.18h-10.76v45.71c0,9.73-7.89,17.63-17.63,17.63h-349.95c-9.73,0-17.62-7.89-17.62-17.62V371.16
				c0-9.73,7.89-17.63,17.63-17.63h221.24c-1.03-3.69-1.04-7.71,0.23-11.62l4.09-12.58h-227.46c-22.05,0-39.92,17.87-39.92,39.92
				V575.8c0,22.05,17.87,39.92,39.92,39.92h353.77c22.05,0,39.92-17.87,39.92-39.92V523
				C1652.74,526.21,1648.04,528.18,1642.87,528.18z"/>
			<path class="st1" d="M1758.83,398.16l-13.98-4.54c-4.1-1.33-6.83-5.25-6.57-9.55c0.12-1.99,0.18-3.99,0.18-6.01
				c0-2.02-0.06-4.02-0.18-6.01c-0.26-4.3,2.48-8.22,6.57-9.55l13.98-4.54c5.01-1.63,7.76-7.01,6.13-12.03l-6.49-19.97
				c-1.63-5.01-7.01-7.76-12.03-6.13l-13.97,4.54c-4.08,1.33-8.58-0.22-10.91-3.82c-2.19-3.39-4.56-6.65-7.11-9.76
				c-2.73-3.33-2.81-8.1-0.28-11.58l8.65-11.9c3.1-4.26,2.15-10.23-2.11-13.33l-16.98-12.34c-4.26-3.1-10.23-2.15-13.33,2.11
				l-8.63,11.88c-2.53,3.48-7.08,4.87-11.09,3.31c-3.73-1.45-7.57-2.7-11.49-3.73c-4.16-1.09-7.03-4.9-7.03-9.2v-14.69
				c0-5.27-4.27-9.54-9.54-9.54h-20.99c-5.27,0-9.54,4.27-9.54,9.54v14.69c0,4.3-2.87,8.11-7.03,9.2
				c-3.92,1.03-7.76,2.28-11.49,3.73c-4.01,1.56-8.56,0.17-11.09-3.31l-8.63-11.88c-3.1-4.26-9.07-5.21-13.33-2.11l-16.98,12.34
				c-4.26,3.1-5.21,9.07-2.11,13.33l8.65,11.9c2.53,3.48,2.44,8.25-0.28,11.58c-2.55,3.11-4.92,6.37-7.11,9.76
				c-2.33,3.61-6.83,5.15-10.91,3.82l-13.97-4.54c-5.01-1.63-10.4,1.11-12.03,6.13l-6.49,19.97c-1.63,5.01,1.11,10.4,6.13,12.03
				l13.98,4.54c4.1,1.33,6.83,5.25,6.57,9.55c-0.12,1.99-0.18,3.99-0.18,6.01s0.06,4.02,0.18,6.01c0.26,4.3-2.48,8.22-6.57,9.55
				l-13.98,4.54c-5.01,1.63-7.76,7.01-6.13,12.03l6.49,19.97c1.63,5.01,7.01,7.76,12.03,6.13l13.97-4.54
				c4.08-1.33,8.58,0.22,10.91,3.82c2.19,3.39,4.56,6.65,7.11,9.76c2.73,3.33,2.81,8.1,0.28,11.58l-8.65,11.9
				c-3.1,4.26-2.15,10.23,2.11,13.33l16.98,12.34c4.26,3.1,10.23,2.15,13.33-2.11l8.63-11.88c2.53-3.48,7.08-4.87,11.09-3.31
				c3.73,1.45,7.57,2.7,11.49,3.73c4.16,1.09,7.03,4.9,7.03,9.2v14.69c0,5.27,4.27,9.54,9.54,9.54h20.99c5.27,0,9.54-4.27,9.54-9.54
				V490.1c0-4.3,2.87-8.11,7.03-9.2c3.92-1.03,7.76-2.27,11.49-3.73c4.01-1.56,8.56-0.17,11.09,3.31l8.63,11.88
				c3.1,4.26,9.07,5.21,13.33,2.11l16.98-12.34c4.26-3.1,5.21-9.07,2.11-13.33l-8.65-11.9c-2.53-3.48-2.44-8.25,0.28-11.58
				c2.55-3.11,4.92-6.37,7.11-9.76c2.33-3.61,6.83-5.15,10.91-3.82l13.97,4.54c5.01,1.63,10.4-1.11,12.03-6.13l6.49-19.97
				C1766.58,405.17,1763.84,399.79,1758.83,398.16z M1632.11,449.67c-39.55,0-71.61-32.06-71.61-71.61s32.06-71.61,71.61-71.61
				c39.55,0,71.61,32.06,71.61,71.61S1671.66,449.67,1632.11,449.67z"/>
			
				<ellipse transform="matrix(0.7071 -0.7071 0.7071 0.7071 210.7071 1264.8033)" class="st1" cx="1632.11" cy="378.06" rx="45.89" ry="45.89"/>
		</g>
	</g>
	<g>
		<path class="st1" d="M1201.52,892.49c-1.42,0-2.65-0.49-3.67-1.47c-1.02-0.98-1.53-2.22-1.53-3.73v-93.74
			c0-1.42,0.51-2.64,1.53-3.67c1.02-1.02,2.24-1.53,3.67-1.53c1.42,0,2.64,0.51,3.67,1.53c1.02,1.02,1.53,2.25,1.53,3.67v89.07
			h52.14c1.42,0,2.64,0.47,3.67,1.4c1.02,0.93,1.53,2.11,1.53,3.53c0,1.42-0.51,2.6-1.53,3.53c-1.02,0.93-2.25,1.4-3.67,1.4H1201.52
			z"/>
		<path class="st1" d="M1286.59,805.68c-1.96,0-3.65-0.71-5.07-2.13c-1.42-1.42-2.13-3.16-2.13-5.2c0-2.22,0.73-3.98,2.2-5.27
			c1.47-1.29,3.18-1.93,5.13-1.93c1.87,0,3.53,0.65,5,1.93c1.47,1.29,2.2,3.05,2.2,5.27c0,2.05-0.71,3.78-2.13,5.2
			C1290.37,804.97,1288.63,805.68,1286.59,805.68z M1286.72,892.49c-1.6,0-2.87-0.47-3.8-1.4c-0.93-0.93-1.4-2.2-1.4-3.8v-62.54
			c0-1.6,0.47-2.87,1.4-3.8c0.93-0.93,2.2-1.4,3.8-1.4c1.51,0,2.73,0.47,3.67,1.4c0.93,0.93,1.4,2.2,1.4,3.8v62.54
			c0,1.6-0.47,2.87-1.4,3.8C1289.46,892.02,1288.23,892.49,1286.72,892.49z"/>
		<path class="st1" d="M1323.12,892.49c-1.6,0-2.87-0.47-3.8-1.4c-0.93-0.93-1.4-2.15-1.4-3.67v-62.67c0-1.6,0.47-2.87,1.4-3.8
			c0.93-0.93,2.2-1.4,3.8-1.4c1.51,0,2.73,0.47,3.67,1.4c0.93,0.93,1.4,2.2,1.4,3.8v62.67c0,1.51-0.47,2.73-1.4,3.67
			S1324.64,892.49,1323.12,892.49z M1380.46,892.49c-1.51,0-2.76-0.49-3.73-1.47c-0.98-0.98-1.47-2.18-1.47-3.6v-34.67
			c0-5.51-1.05-10.04-3.13-13.6c-2.09-3.55-4.93-6.22-8.53-8c-3.6-1.78-7.67-2.67-12.2-2.67c-4.36,0-8.29,0.85-11.8,2.53
			c-3.51,1.69-6.29,4-8.33,6.93c-2.05,2.93-3.07,6.27-3.07,10h-7.33c0.18-5.6,1.69-10.6,4.53-15c2.84-4.4,6.62-7.87,11.33-10.4
			c4.71-2.53,9.96-3.8,15.73-3.8c6.31,0,11.96,1.31,16.93,3.93c4.98,2.62,8.91,6.47,11.8,11.53c2.89,5.07,4.33,11.25,4.33,18.53
			v34.67c0,1.42-0.49,2.62-1.47,3.6C1383.08,892,1381.88,892.49,1380.46,892.49z"/>
		<path class="st1" d="M1413.26,892.49c-1.51,0-2.73-0.47-3.67-1.4c-0.93-0.93-1.4-2.15-1.4-3.67v-94.01c0-1.51,0.47-2.73,1.4-3.67
			c0.93-0.93,2.15-1.4,3.67-1.4c1.51,0,2.73,0.47,3.67,1.4c0.93,0.93,1.4,2.16,1.4,3.67v94.01c0,1.51-0.47,2.73-1.4,3.67
			C1416,892.02,1414.77,892.49,1413.26,892.49z M1416.6,868.09l-6.27-6.8l45.6-41.2c1.07-0.98,2.18-1.44,3.33-1.4
			c1.15,0.05,2.22,0.6,3.2,1.67s1.45,2.2,1.4,3.4s-0.6,2.25-1.67,3.13L1416.6,868.09z M1462.6,891.82c-1.16,0.98-2.36,1.4-3.6,1.27
			c-1.25-0.13-2.31-0.78-3.2-1.93l-29.74-36.54l7.2-6.4l30,36.94c0.89,1.07,1.29,2.2,1.2,3.4
			C1464.38,889.76,1463.76,890.85,1462.6,891.82z"/>
		<path class="st1" d="M1532.6,893.82c-7.2,0-13.93-1.38-20.2-4.13c-6.27-2.75-11.78-6.6-16.54-11.53
			c-4.76-4.93-8.47-10.62-11.13-17.07c-2.67-6.44-4-13.36-4-20.73c0-7.29,1.31-14.16,3.93-20.6c2.62-6.44,6.31-12.11,11.07-17
			c4.75-4.89,10.27-8.73,16.54-11.53c6.27-2.8,13.04-4.2,20.33-4.2c6.4,0,12.22,0.93,17.47,2.8c5.24,1.87,10.31,4.85,15.2,8.93
			c0.8,0.62,1.27,1.36,1.4,2.2c0.13,0.85,0.02,1.65-0.33,2.4c-0.36,0.76-0.89,1.31-1.6,1.67c-0.18,0.71-0.62,1.25-1.33,1.6
			c-0.71,0.36-1.53,0.49-2.47,0.4c-0.93-0.09-1.85-0.49-2.73-1.2c-3.47-3.02-7.25-5.27-11.33-6.73c-4.09-1.47-8.85-2.2-14.27-2.2
			c-5.78,0-11.18,1.16-16.2,3.47c-5.02,2.31-9.45,5.47-13.27,9.47s-6.82,8.62-9,13.87c-2.18,5.25-3.27,10.8-3.27,16.67
			c0,6.05,1.09,11.69,3.27,16.93c2.18,5.25,5.18,9.87,9,13.87s8.24,7.13,13.27,9.4c5.02,2.27,10.42,3.4,16.2,3.4
			c4.89,0,9.51-0.8,13.87-2.4c4.35-1.6,8.49-3.91,12.4-6.93c1.07-0.89,2.2-1.24,3.4-1.07c1.2,0.18,2.24,0.71,3.13,1.6
			c0.89,0.89,1.33,2.05,1.33,3.47c0,0.71-0.09,1.36-0.27,1.93c-0.18,0.58-0.58,1.18-1.2,1.8c-4.53,4.18-9.6,7.13-15.2,8.87
			C1544.47,892.96,1538.65,893.82,1532.6,893.82z M1566.74,878.62l-10.13-2.13v-26.8h-20.8c-1.51,0-2.76-0.44-3.73-1.33
			c-0.98-0.89-1.47-2-1.47-3.33c0-1.33,0.49-2.42,1.47-3.27c0.98-0.84,2.22-1.27,3.73-1.27h25.73c1.51,0,2.75,0.47,3.73,1.4
			c0.98,0.93,1.47,2.16,1.47,3.67V878.62z"/>
		<path class="st1" d="M1619.01,893.29c-6.31,0-11.96-1.31-16.94-3.93c-4.98-2.62-8.91-6.47-11.8-11.53
			c-2.89-5.07-4.33-11.24-4.33-18.53v-34.67c0-1.42,0.49-2.62,1.47-3.6c0.98-0.98,2.18-1.47,3.6-1.47c1.51,0,2.75,0.49,3.73,1.47
			c0.98,0.98,1.47,2.18,1.47,3.6v34.67c0,5.51,1.04,10.05,3.13,13.6c2.09,3.56,4.93,6.22,8.53,8c3.6,1.78,7.67,2.67,12.2,2.67
			c4.36,0,8.29-0.84,11.8-2.53c3.51-1.69,6.29-4,8.33-6.93s3.07-6.27,3.07-10h7.33c-0.27,5.6-1.8,10.6-4.6,15s-6.56,7.87-11.27,10.4
			C1630.03,892.02,1624.79,893.29,1619.01,893.29z M1648.35,892.49c-1.51,0-2.73-0.47-3.67-1.4s-1.4-2.2-1.4-3.8v-62.67
			c0-1.51,0.47-2.73,1.4-3.67c0.93-0.93,2.15-1.4,3.67-1.4c1.51,0,2.75,0.47,3.73,1.4c0.98,0.93,1.47,2.16,1.47,3.67v62.67
			c0,1.6-0.49,2.87-1.47,3.8S1649.85,892.49,1648.35,892.49z"/>
		<path class="st1" d="M1703.01,893.16c-5.25,0-10.45-0.89-15.6-2.67c-5.16-1.78-9.33-4.44-12.53-8c-0.98-1.07-1.38-2.27-1.2-3.6
			c0.18-1.33,0.84-2.49,2-3.47c1.24-0.89,2.54-1.24,3.87-1.07c1.33,0.18,2.45,0.76,3.33,1.73c2.13,2.49,4.96,4.4,8.47,5.73
			c3.51,1.33,7.4,2,11.67,2c6.58,0,11.33-1.13,14.27-3.4s4.45-5,4.53-8.2c0-3.2-1.51-5.84-4.53-7.93c-3.02-2.09-8-3.71-14.93-4.87
			c-8.98-1.42-15.56-3.91-19.73-7.47c-4.18-3.55-6.27-7.78-6.27-12.67c0-4.53,1.2-8.31,3.6-11.33c2.4-3.02,5.6-5.29,9.6-6.8
			c4-1.51,8.4-2.27,13.2-2.27c5.95,0,11.09,1.02,15.4,3.07c4.31,2.05,7.8,4.8,10.47,8.27c0.89,1.16,1.24,2.36,1.07,3.6
			c-0.18,1.25-0.89,2.27-2.13,3.07c-1.07,0.62-2.29,0.82-3.67,0.6c-1.38-0.22-2.56-0.87-3.54-1.93c-2.22-2.58-4.8-4.47-7.73-5.67
			s-6.31-1.8-10.13-1.8c-4.89,0-8.8,1-11.73,3s-4.4,4.51-4.4,7.53c0,2.05,0.55,3.82,1.67,5.33c1.11,1.51,3.02,2.85,5.73,4
			c2.71,1.16,6.51,2.13,11.4,2.93c6.67,1.07,11.94,2.65,15.8,4.73c3.87,2.09,6.62,4.53,8.27,7.33c1.64,2.8,2.47,5.85,2.47,9.13
			c0,4.18-1.22,7.85-3.67,11c-2.45,3.16-5.82,5.62-10.13,7.4C1713.57,892.27,1708.61,893.16,1703.01,893.16z"/>
	</g>
	<g>
		<path class="st1" d="M1483,413.18h-213c-1.38,0-2.5-1.12-2.5-2.5s1.12-2.5,2.5-2.5h213c1.38,0,2.5,1.12,2.5,2.5
			S1484.38,413.18,1483,413.18z"/>
		<path class="st1" d="M1537.5,457.18H1270c-1.38,0-2.5-1.12-2.5-2.5s1.12-2.5,2.5-2.5h267.5c1.38,0,2.5,1.12,2.5,2.5
			S1538.88,457.18,1537.5,457.18z"/>
		<path class="st1" d="M1548.5,501.18H1270c-1.38,0-2.5-1.12-2.5-2.5s1.12-2.5,2.5-2.5h278.5c1.38,0,2.5,1.12,2.5,2.5
			S1549.88,501.18,1548.5,501.18z"/>
		<path class="st1" d="M1613.5,545.18H1270c-1.38,0-2.5-1.12-2.5-2.5s1.12-2.5,2.5-2.5h343.5c1.38,0,2.5,1.12,2.5,2.5
			S1614.88,545.18,1613.5,545.18z"/>
	</g>
</g>
</svg>
